<?xml version="1.0" encoding="UTF-8" standalone="no"?>
<!DOCTYPE svg PUBLIC "-//W3C//DTD SVG 1.1//EN" "http://www.w3.org/Graphics/SVG/1.1/DTD/svg11.dtd">
<svg xmlns="http://www.w3.org/2000/svg" version="1.1" viewBox="0.00 0.00 478.00 242.00">
<path stroke="#828282" stroke-width="2.00" fill="none" stroke-linecap="butt" vector-effect="non-scaling-stroke" d="
  M 393.12 121.79
  C 394.86 119.31 396.84 117.08 398.53 114.53
  Q 402.87 108.00 408.70 100.72
  Q 409.19 100.10 409.20 99.31
  L 409.29 91.27
  A 0.27 0.27 0.0 0 0 409.02 91.00
  L 355.45 91.00
  Q 354.91 91.00 354.90 91.55
  L 354.87 103.54
  A 0.42 0.42 0.0 0 0 355.29 103.96
  L 387.16 103.98
  A 0.40 0.40 0.0 0 1 387.48 104.62
  L 352.62 151.30
  Q 352.27 151.77 352.27 152.35
  L 352.24 160.25
  Q 352.24 161.00 353.00 161.00
  L 408.94 161.00
  A 0.44 0.43 90.0 0 0 409.37 160.56
  L 409.34 148.69
  Q 409.34 148.03 408.69 148.03
  L 375.01 148.03
  Q 374.19 148.03 374.68 147.37
  Q 383.96 134.82 393.12 121.79"
/>
<path fill="#161616" d="
  M 415.98 184.54
  A 0.45 0.45 0.0 0 1 415.53 184.99
  L 344.47 184.99
  A 0.45 0.45 0.0 0 1 344.02 184.54
  L 344.02 53.46
  A 0.45 0.45 0.0 0 1 344.47 53.01
  L 415.53 53.01
  A 0.45 0.45 0.0 0 1 415.98 53.46
  L 415.98 184.54
  Z
  M 393.12 121.79
  C 394.86 119.31 396.84 117.08 398.53 114.53
  Q 402.87 108.00 408.70 100.72
  Q 409.19 100.10 409.20 99.31
  L 409.29 91.27
  A 0.27 0.27 0.0 0 0 409.02 91.00
  L 355.45 91.00
  Q 354.91 91.00 354.90 91.55
  L 354.87 103.54
  A 0.42 0.42 0.0 0 0 355.29 103.96
  L 387.16 103.98
  A 0.40 0.40 0.0 0 1 387.48 104.62
  L 352.62 151.30
  Q 352.27 151.77 352.27 152.35
  L 352.24 160.25
  Q 352.24 161.00 353.00 161.00
  L 408.94 161.00
  A 0.44 0.43 90.0 0 0 409.37 160.56
  L 409.34 148.69
  Q 409.34 148.03 408.69 148.03
  L 375.01 148.03
  Q 374.19 148.03 374.68 147.37
  Q 383.96 134.82 393.12 121.79
  Z"
/>
<ellipse fill="#161616" cx="0.00" cy="0.00" transform="translate(277.32,94.97) rotate(0.9)" rx="8.76" ry="7.99"/>
<path fill="#161616" d="
  M 73.50 104.49
  C 73.48 109.89 73.99 115.37 73.99 120.86
  Q 74.01 139.84 73.98 160.28
  A 0.70 0.69 -90.0 0 1 73.29 160.98
  L 61.12 160.96
  Q 60.28 160.96 60.28 160.12
  L 60.24 91.67
  Q 60.24 91.03 60.88 91.03
  L 82.28 91.01
  Q 82.90 91.01 83.11 91.60
  Q 89.83 111.27 96.81 131.39
  Q 98.54 136.39 99.60 141.74
  Q 99.94 143.47 100.41 141.77
  Q 101.63 137.23 102.89 133.47
  Q 109.77 112.99 117.21 91.74
  Q 117.47 91.01 118.24 91.01
  L 138.80 91.00
  Q 139.61 91.00 139.61 91.80
  L 139.57 160.45
  A 0.53 0.53 0.0 0 1 139.04 160.98
  L 125.01 160.96
  A 0.60 0.60 0.0 0 1 124.41 160.36
  Q 124.35 139.88 124.53 117.75
  Q 124.58 111.44 124.80 104.73
  Q 124.82 104.24 124.34 104.35
  L 124.09 104.41
  Q 123.93 104.45 123.91 104.61
  Q 123.15 110.10 121.20 115.70
  Q 113.59 137.54 105.76 160.39
  A 0.86 0.85 9.6 0 1 104.95 160.96
  L 93.79 160.96
  Q 93.09 160.96 92.86 160.30
  Q 84.69 137.23 76.98 115.40
  C 75.75 111.91 75.02 108.14 74.37 104.49
  Q 74.32 104.16 74.00 104.09
  A 0.41 0.41 0.0 0 0 73.50 104.49
  Z"
/>
<path fill="#ededed" d="
  M 393.12 121.79
  Q 383.96 134.82 374.68 147.37
  Q 374.19 148.03 375.01 148.03
  L 408.69 148.03
  Q 409.34 148.03 409.34 148.69
  L 409.37 160.56
  A 0.44 0.43 90.0 0 1 408.94 161.00
  L 353.00 161.00
  Q 352.24 161.00 352.24 160.25
  L 352.27 152.35
  Q 352.27 151.77 352.62 151.30
  L 387.48 104.62
  A 0.40 0.40 0.0 0 0 387.16 103.98
  L 355.29 103.96
  A 0.42 0.42 0.0 0 1 354.87 103.54
  L 354.90 91.55
  Q 354.91 91.00 355.45 91.00
  L 409.02 91.00
  A 0.27 0.27 0.0 0 1 409.29 91.27
  L 409.20 99.31
  Q 409.19 100.10 408.70 100.72
  Q 402.87 108.00 398.53 114.53
  C 396.84 117.08 394.86 119.31 393.12 121.79
  Z"
/>
<path fill="#161616" d="
  M 204.9878 138.1671
  A 23.45 23.45 0.0 0 1 181.6198 161.6988
  L 175.2798 161.7209
  A 23.45 23.45 0.0 0 1 151.7481 138.3529
  L 151.7322 133.7929
  A 23.45 23.45 0.0 0 1 175.1002 110.2612
  L 181.4402 110.2391
  A 23.45 23.45 0.0 0 1 204.9719 133.6071
  L 204.9878 138.1671
  Z
  M 189.73 132.28
  A 10.47 10.47 0.0 0 0 179.26 121.81
  L 177.46 121.81
  A 10.47 10.47 0.0 0 0 166.99 132.28
  L 166.99 139.72
  A 10.47 10.47 0.0 0 0 177.46 150.19
  L 179.26 150.19
  A 10.47 10.47 0.0 0 0 189.73 139.72
  L 189.73 132.28
  Z"
/>
<path fill="#161616" d="
  M 310.17 141.13
  Q 311.25 148.99 318.42 150.48
  Q 328.86 152.66 337.96 147.54
  Q 338.36 147.31 338.36 147.78
  L 338.32 158.02
  Q 338.32 158.34 338.02 158.47
  C 324.41 164.02 304.96 164.40 297.69 149.32
  Q 294.87 143.47 295.26 134.72
  C 295.96 119.11 307.87 108.40 323.61 110.27
  C 334.07 111.52 341.08 118.80 342.25 129.13
  Q 342.81 134.03 342.49 139.77
  Q 342.47 140.25 341.99 140.25
  L 310.94 140.25
  Q 310.04 140.25 310.17 141.13
  Z
  M 310.70 131.08
  L 328.88 130.92
  A 0.23 0.23 0.0 0 0 329.10 130.69
  L 329.10 130.35
  A 10.19 9.22 89.5 0 0 319.79 120.24
  L 319.59 120.24
  A 10.19 9.22 89.5 0 0 310.46 130.51
  L 310.47 130.85
  A 0.23 0.23 0.0 0 0 310.70 131.08
  Z"
/>
<path fill="#161616" d="
  M 236.43 149.48
  Q 237.06 145.99 237.95 142.82
  Q 242.11 128.12 246.85 111.53
  Q 247.00 111.00 247.55 111.00
  L 262.25 111.01
  A 0.36 0.35 -79.7 0 1 262.58 111.49
  L 244.30 160.59
  Q 244.15 160.99 243.72 160.99
  L 227.59 160.98
  Q 226.96 160.98 226.75 160.40
  L 209.49 111.78
  Q 209.22 111.02 210.02 111.02
  L 224.95 111.00
  A 0.48 0.48 0.0 0 1 225.41 111.35
  Q 229.73 126.42 234.53 143.63
  C 235.07 145.55 235.32 147.48 235.58 149.46
  Q 235.94 152.16 236.43 149.48
  Z"
/>
<rect fill="#161616" x="269.68" y="111.02" width="15.10" height="49.96" rx="0.52"/>
</svg>
